<svg width="46" height="46" viewBox="0 0 46 46" fill="none" xmlns="http://www.w3.org/2000/svg">
<g clip-path="url(#clip0)">
<path d="M17.7858 2.87891H11.3182C10.8222 2.87891 10.4199 3.28105 10.4199 3.77716C10.4199 4.27328 10.8222 4.67542 11.3182 4.67542H17.7858C18.2818 4.67542 18.684 4.27328 18.684 3.77716C18.684 3.28105 18.2818 2.87891 17.7858 2.87891Z" fill="#FF9560"/>
<path d="M15.1871 41.0274C15.0201 40.8602 14.7884 40.7642 14.5521 40.7642C14.3158 40.7642 14.0841 40.8603 13.917 41.0274C13.7499 41.1945 13.6538 41.4262 13.6538 41.6625C13.6538 41.8988 13.7499 42.1305 13.917 42.2976C14.0841 42.4647 14.3158 42.5608 14.5521 42.5608C14.7884 42.5608 15.0201 42.4646 15.1871 42.2976C15.3542 42.1305 15.4503 41.8988 15.4503 41.6625C15.4503 41.4253 15.3543 41.1944 15.1871 41.0274Z" fill="#FF9560"/>
<path d="M40.217 28.5574L36.9121 22.8332C38.2672 21.5776 38.6288 19.5057 37.6669 17.8397C37.1261 16.9032 36.2532 16.2332 35.2085 15.9534C34.4598 15.7527 33.6872 15.7709 32.9646 15.9959L29.6603 10.2727C29.5111 10.0143 29.2432 9.84679 28.9455 9.82586C28.6476 9.80456 28.3591 9.93322 28.1752 10.1681L17.8874 23.3057L13.5698 25.7985C11.1061 27.2208 10.2591 30.3824 11.6815 32.8461C12.3706 34.0396 13.483 34.8932 14.8142 35.2498C15.2587 35.369 15.7097 35.4279 16.1579 35.4279C17.0518 35.4279 17.9341 35.1935 18.7291 34.7344L19.2433 34.4376L21.0366 37.5437H1.79652V7.54895H27.3075V7.81839C27.3075 8.3145 27.7097 8.71664 28.2057 8.71664C28.7018 8.71664 29.104 8.3145 29.104 7.81839V3.53014C29.104 1.58557 27.5219 0.00341797 25.5773 0.00341797H3.52673C1.58206 0.00341797 0 1.58548 0 3.53014V42.4684C0 44.413 1.58206 45.9952 3.52673 45.9952H25.5774C27.522 45.9952 29.1042 44.4131 29.1042 42.4684V31.3828L39.5656 29.8958C39.861 29.8538 40.1163 29.6679 40.2469 29.3996C40.3773 29.1314 40.3663 28.8158 40.217 28.5574ZM1.79652 3.53014C1.79652 2.57609 2.57268 1.80002 3.52664 1.80002H25.5773C26.5313 1.80002 27.3075 2.57609 27.3075 3.53014V5.75234H1.79652V3.53014ZM34.7436 17.6887C35.3247 17.8444 35.8103 18.2171 36.1111 18.7381C36.5723 19.5371 36.4864 20.5041 35.9709 21.2031L33.9056 17.6258C34.1828 17.5943 34.466 17.6143 34.7436 17.6887ZM17.8308 33.1786C17.053 33.6277 16.1465 33.7469 15.2792 33.5145C14.4117 33.282 13.6865 32.7257 13.2374 31.9477C12.3104 30.3419 12.8625 28.2813 14.4682 27.3542L18.1586 25.2235L21.5209 31.048L17.8308 33.1786ZM20.7992 33.5393L22.4192 32.604L24.5414 36.2796L22.9214 37.2149L20.7992 33.5393ZM27.3075 42.4683C27.3075 43.4224 26.5313 44.1985 25.5773 44.1985H3.52673C2.57277 44.1985 1.79661 43.4224 1.79661 42.4683V39.3402H27.3076V42.4683H27.3075ZM27.3075 37.5437H25.9448L26.2173 37.3863C26.6469 37.1384 26.7942 36.589 26.546 36.1592L24.1915 32.081L27.3075 31.638V37.5437ZM23.2239 30.4039L19.5685 24.0727L26.1018 15.7297L33.7132 28.913L23.2239 30.4039ZM35.6303 28.6405L27.2959 14.2048L28.7696 12.3229L37.9964 28.3041L35.6303 28.6405Z" fill="#FF9560"/>
<path d="M45.8795 13.1294C45.6314 12.6999 45.0822 12.5526 44.6525 12.8007L40.2481 15.3436C39.8185 15.5916 39.6712 16.141 39.9194 16.5706C40.0859 16.8588 40.3876 17.0199 40.6981 17.0199C40.8505 17.0199 41.005 16.9811 41.1464 16.8994L45.5508 14.3564C45.9804 14.1085 46.1277 13.5591 45.8795 13.1294Z" fill="#FF9560"/>
<path d="M37.7487 9.18612C37.2694 9.05765 36.777 9.34218 36.6486 9.82132L36.0064 12.2178C35.878 12.6971 36.1624 13.1897 36.6416 13.318C36.7195 13.3389 36.7977 13.3489 36.8747 13.3489C37.2713 13.3489 37.6342 13.0842 37.7418 12.6828L38.3839 10.2864C38.5123 9.80704 38.2279 9.31451 37.7487 9.18612Z" fill="#FF9560"/>
<path d="M44.6096 20.9367L42.1329 20.273C41.6536 20.1446 41.1613 20.4291 41.0328 20.9082C40.9043 21.3875 41.1888 21.88 41.668 22.0085L44.1446 22.6721C44.2225 22.693 44.3007 22.703 44.3777 22.703C44.7742 22.703 45.1372 22.4383 45.2448 22.0369C45.3731 21.5576 45.0888 21.065 44.6096 20.9367Z" fill="#FF9560"/>
</g>
<defs>
<clipPath id="clip0">
<rect width="46" height="46" fill="white"/>
</clipPath>
</defs>
</svg>
