<svg width="46" height="46" viewBox="0 0 46 46" fill="none" xmlns="http://www.w3.org/2000/svg">
<path d="M23.7667 38.3335H22.2334V39.8668H23.7667V38.3335Z" fill="#FF9560"/>
<path d="M45.2333 39.8667H44.4667V12.2667C44.4667 10.573 43.0937 9.2 41.4 9.2H36.8V3.06667C36.8 1.373 35.427 0 33.7333 0H12.2667C10.573 0 9.2 1.373 9.2 3.06667V9.2H4.6C2.90634 9.2 1.53333 10.573 1.53333 12.2667V39.8667H0.766667C0.343275 39.8667 0 40.2099 0 40.6333V42.9333C0 44.627 1.373 46 3.06667 46H42.9333C44.627 46 46 44.627 46 42.9333V40.6333C46 40.2099 45.6567 39.8667 45.2333 39.8667ZM10.7333 3.06667C10.7333 2.21979 11.4198 1.53333 12.2667 1.53333H33.7333C34.5802 1.53333 35.2667 2.21979 35.2667 3.06667V6.13333H10.7333V3.06667ZM10.7333 7.66667H35.2667V29.9C35.2667 30.7469 34.5802 31.4333 33.7333 31.4333H12.2667C11.4198 31.4333 10.7333 30.7469 10.7333 29.9V7.66667ZM12.2667 32.9667H33.7333C35.427 32.9667 36.8 31.5937 36.8 29.9V13.8H39.8667V35.2667H6.13333V13.8H9.2V29.9C9.2 31.5937 10.573 32.9667 12.2667 32.9667ZM3.06667 12.2667C3.06667 11.4198 3.75312 10.7333 4.6 10.7333H9.2V12.2667H5.36667C4.94327 12.2667 4.6 12.6099 4.6 13.0333V36.0333C4.6 36.4567 4.94327 36.8 5.36667 36.8H40.6333C41.0567 36.8 41.4 36.4567 41.4 36.0333V13.0333C41.4 12.6099 41.0567 12.2667 40.6333 12.2667H36.8V10.7333H41.4C42.2469 10.7333 42.9333 11.4198 42.9333 12.2667V39.8667H29.9C29.6968 39.8665 29.5018 39.9471 29.358 40.0905L28.0493 41.4H17.9507L16.642 40.0905C16.4982 39.9471 16.3032 39.8665 16.1 39.8667H3.06667V12.2667ZM44.4667 42.9333C44.4667 43.7802 43.7802 44.4667 42.9333 44.4667H3.06667C2.21979 44.4667 1.53333 43.7802 1.53333 42.9333V41.4H15.7826L17.0913 42.7087C17.235 42.8525 17.43 42.9333 17.6333 42.9333H28.3667C28.57 42.9333 28.7649 42.8525 28.9087 42.7087L30.2174 41.4H44.4667V42.9333Z" fill="#FF9560"/>
<path d="M32.9666 21.4668H17.6333V23.0001H32.9666V21.4668Z" fill="#FF9560"/>
<path d="M13.7999 3.06689H12.2666V4.60023H13.7999V3.06689Z" fill="#FF9560"/>
<path d="M16.8668 3.06689H15.3335V4.60023H16.8668V3.06689Z" fill="#FF9560"/>
<path d="M19.9332 3.06689H18.3999V4.60023H19.9332V3.06689Z" fill="#FF9560"/>
<path d="M16.1002 21.4668H14.5669V23.0001H16.1002V21.4668Z" fill="#FF9560"/>
<path d="M20.393 12.88L19.473 11.6533L16.4063 13.9533C16.0676 14.2074 15.9989 14.6879 16.253 15.0266C16.2966 15.0847 16.3483 15.1364 16.4063 15.18L19.473 17.48L20.393 16.2533L18.1444 14.5666L20.393 12.88Z" fill="#FF9560"/>
<path d="M29.7465 14.1066C29.7029 14.0486 29.6512 13.9969 29.5931 13.9533L26.5264 11.6533L25.6064 12.88L27.8551 14.5666L25.6064 16.2533L26.5264 17.48L29.5931 15.18C29.9319 14.9259 30.0005 14.4454 29.7465 14.1066Z" fill="#FF9560"/>
<path d="M23.8214 10.4504L20.7539 18.1162L22.1775 18.6858L25.2449 11.0201L23.8214 10.4504Z" fill="#FF9560"/>
</svg>
