<svg width="15" height="16" viewBox="0 0 15 16" fill="none" xmlns="http://www.w3.org/2000/svg">
<path fill-rule="evenodd" clip-rule="evenodd" d="M7.50084 0.177734C5.46391 0.177734 5.20827 0.186682 4.40825 0.223255C3.60979 0.259985 3.06478 0.386972 2.58789 0.573292C2.09459 0.765733 1.67614 1.02316 1.25925 1.4421C0.842055 1.86089 0.585798 2.28125 0.393605 2.77664C0.207662 3.25586 0.0810961 3.80352 0.0451575 4.60531C0.00937527 5.40898 0 5.66593 0 7.71216C0 9.75838 0.00906276 10.0144 0.0453138 10.8181C0.0820336 11.6202 0.208443 12.1677 0.393761 12.6467C0.585486 13.1423 0.841743 13.5626 1.25879 13.9814C1.67552 14.4005 2.09397 14.6586 2.58695 14.851C3.06415 15.0373 3.60932 15.1643 4.40763 15.2011C5.20765 15.2376 5.46313 15.2466 7.4999 15.2466C9.53699 15.2466 9.79184 15.2376 10.5919 15.2011C11.3903 15.1643 11.936 15.0373 12.4132 14.851C12.9063 14.6586 13.3241 14.4005 13.7409 13.9814C14.1581 13.5626 14.4143 13.1423 14.6065 12.6469C14.7909 12.1677 14.9175 11.62 14.955 10.8182C14.9909 10.0146 15.0003 9.75838 15.0003 7.71216C15.0003 5.66593 14.9909 5.40914 14.955 4.60546C14.9175 3.80336 14.7909 3.25586 14.6065 2.7768C14.4143 2.28125 14.1581 1.86089 13.7409 1.4421C13.3237 1.023 12.9065 0.765576 12.4127 0.573292C11.9346 0.386972 11.3892 0.259985 10.5908 0.223255C9.79075 0.186682 9.53606 0.177734 7.4985 0.177734H7.50084ZM6.82787 1.53411C7.02756 1.5338 7.25038 1.53411 7.5007 1.53411C9.50326 1.53411 9.74062 1.54133 10.5314 1.57743C11.2627 1.61102 11.6596 1.73376 11.924 1.83689C12.274 1.97344 12.5235 2.13668 12.7859 2.40038C13.0484 2.66407 13.2109 2.91521 13.3471 3.2668C13.4498 3.53206 13.5721 3.93074 13.6054 4.66532C13.6414 5.45954 13.6492 5.69812 13.6492 7.70878C13.6492 9.71945 13.6414 9.95803 13.6054 10.7523C13.572 11.4868 13.4498 11.8855 13.3471 12.1508C13.2112 12.5024 13.0484 12.7527 12.7859 13.0163C12.5234 13.2799 12.2741 13.4432 11.924 13.5797C11.6599 13.6833 11.2627 13.8058 10.5314 13.8394C9.74077 13.8755 9.50326 13.8833 7.5007 13.8833C5.49799 13.8833 5.26064 13.8755 4.46999 13.8394C3.73872 13.8054 3.34183 13.6827 3.07729 13.5796C2.72728 13.443 2.47727 13.2798 2.21476 13.0161C1.95226 12.7524 1.78975 12.5019 1.6535 12.1501C1.55084 11.8849 1.42849 11.4862 1.39521 10.7516C1.35927 9.9574 1.35208 9.71882 1.35208 7.7069C1.35208 5.69498 1.35927 5.45765 1.39521 4.66343C1.42865 3.92886 1.55084 3.53018 1.6535 3.2646C1.78944 2.91301 1.95226 2.66187 2.21476 2.39818C2.47727 2.13448 2.72728 1.97125 3.07729 1.83438C3.34167 1.73078 3.73872 1.60835 4.46999 1.57461C5.16188 1.54321 5.43002 1.5338 6.82787 1.53223V1.53411ZM11.5043 2.78376C11.0074 2.78376 10.6043 3.18785 10.6043 3.68665C10.6043 4.18529 11.0074 4.58984 11.5043 4.58984C12.0012 4.58984 12.4043 4.18529 12.4043 3.68665C12.4043 3.188 12.0012 2.78345 11.5043 2.78345V2.78376ZM7.50065 3.84229C5.37356 3.84229 3.64899 5.5747 3.64899 7.71145C3.64899 9.84821 5.37356 11.5798 7.50065 11.5798C9.62773 11.5798 11.3517 9.84821 11.3517 7.71145C11.3517 5.5747 9.62758 3.84229 7.50049 3.84229H7.50065ZM7.50069 5.20117C8.88135 5.20117 10.0008 6.32547 10.0008 7.71252C10.0008 9.09942 8.88135 10.2239 7.50069 10.2239C6.11986 10.2239 5.00061 9.09942 5.00061 7.71252C5.00061 6.32547 6.11986 5.20117 7.50069 5.20117V5.20117Z" fill="#F2994A"/>
</svg>
