<svg width="16" height="16" viewBox="0 0 16 16" fill="none" xmlns="http://www.w3.org/2000/svg">
<path fill-rule="evenodd" clip-rule="evenodd" d="M3.78958 1.93323C3.76772 0.936729 3.05808 0.177734 1.90572 0.177734C0.753369 0.177734 0 0.936729 0 1.93323C0 2.90909 0.731102 3.68994 1.862 3.68994H1.88352C3.05808 3.68994 3.78958 2.90909 3.78958 1.93323ZM3.5679 5.07861H0.199341V15.2446H3.5679V5.07861ZM11.8375 4.84033C14.0542 4.84033 15.716 6.2938 15.716 9.41673L15.7159 15.2463H12.3475V9.80684C12.3475 8.44056 11.86 7.50824 10.6406 7.50824C9.70996 7.50824 9.15564 8.13676 8.91219 8.74381C8.82312 8.96137 8.80126 9.26449 8.80126 9.56836V15.2466H5.43231C5.43231 15.2466 5.47671 6.03339 5.43231 5.07935H8.80126V6.51945C9.24834 5.82717 10.0491 4.84033 11.8375 4.84033Z" fill="#F2994A"/>
</svg>
