<svg width="46" height="46" viewBox="0 0 46 46" fill="none" xmlns="http://www.w3.org/2000/svg">
<path d="M42.2903 11.871H37.0968V0H4.45161V11.871H3.70968C1.66428 11.871 0 13.5353 0 15.5806V37.8387C0 39.8841 1.66428 41.5484 3.70968 41.5484H13.3548V44.5161H10.3871V46H35.6129V44.5161H32.6452V41.5484H42.2903C44.3357 41.5484 46 39.8841 46 37.8387V15.5806C46 13.5353 44.3357 11.871 42.2903 11.871ZM35.6129 17.8065H37.0968V22.2581H35.6129V17.8065ZM34.129 19.2903H20.7742V17.8065H34.129V19.2903ZM19.2903 21.9295L15.0517 20.3402C14.9242 20.292 14.8387 20.1688 14.8387 20.0323C14.8387 19.8957 14.9242 19.7725 15.0525 19.7243L19.2903 18.135V21.9295ZM20.7742 20.7742H34.129V22.2581H20.7742V20.7742ZM38.5806 17.8065H39.3226C40.5496 17.8065 41.5484 18.8052 41.5484 20.0323C41.5484 21.2593 40.5496 22.2581 39.3226 22.2581H38.5806V17.8065ZM19.8971 16.3226L14.5315 18.3346C13.8283 18.598 13.3548 19.2805 13.3548 20.0323C13.3548 20.784 13.8283 21.4665 14.5308 21.7299L19.8971 23.7419H35.6129V31.1613H5.93548V7.41935H35.6129V16.3226H19.8971ZM35.6129 1.48387V5.93548H5.93548V1.48387H35.6129ZM3.70968 13.3548H4.45161V32.6452H37.0968V23.7419H39.3226C41.368 23.7419 43.0323 22.0777 43.0323 20.0323C43.0323 17.9869 41.368 16.3226 39.3226 16.3226H37.0968V13.3548H42.2903C43.5173 13.3548 44.5161 14.3536 44.5161 15.5806V35.6129H1.48387V15.5806C1.48387 14.3536 2.48266 13.3548 3.70968 13.3548ZM31.1613 44.5161H14.8387V41.5484H31.1613V44.5161ZM42.2903 40.0645H3.70968C2.48266 40.0645 1.48387 39.0657 1.48387 37.8387V37.0968H44.5161V37.8387C44.5161 39.0657 43.5173 40.0645 42.2903 40.0645Z" fill="#FF9560"/>
<path d="M7.41943 2.96777H8.9033V4.45164H7.41943V2.96777Z" fill="#FF9560"/>
<path d="M10.3872 2.96777H11.8711V4.45164H10.3872V2.96777Z" fill="#FF9560"/>
<path d="M13.355 2.96777H14.8389V4.45164H13.355V2.96777Z" fill="#FF9560"/>
<path d="M7.41943 14.8388H16.3227V8.90332H7.41943V14.8388ZM8.9033 10.3872H14.8388V13.3549H8.9033V10.3872Z" fill="#FF9560"/>
<path d="M32.645 28.1934H34.1289V29.6772H32.645V28.1934Z" fill="#FF9560"/>
</svg>
