<svg width="46" height="46" viewBox="0 0 46 46" fill="none" xmlns="http://www.w3.org/2000/svg">
<g clip-path="url(#clip0)">
<path d="M30.6668 3.8335H15.3335V5.36683H30.6668V3.8335Z" fill="#FF9560"/>
<path d="M37.9501 28.7502C37.9501 27.2707 36.7462 26.0668 35.2668 26.0668H33.7335V15.3335H32.2001V26.0668H30.2835C28.804 26.0668 27.6001 27.2708 27.6001 28.7502C27.6001 29.5013 27.9124 30.1792 28.4115 30.6668C27.9124 31.1544 27.6001 31.8324 27.6001 32.5835C27.6001 33.1003 27.7539 33.5792 28.0083 33.9892C27.0912 34.4163 26.4501 35.3404 26.4501 36.4168C26.4501 36.83 26.5518 37.2169 26.7193 37.5668H20.7001C20.7001 35.2227 19.5254 33.1481 17.7338 31.9007C19.4663 31.2403 20.7001 29.5618 20.7001 27.6002C20.7001 27.1768 20.3572 26.8335 19.9335 26.8335H13.8001V19.1668H12.2668V26.8335C10.9985 26.8335 9.9668 27.8652 9.9668 29.1335V46.0002H11.5001V29.1335C11.5001 28.7109 11.8438 28.3668 12.2668 28.3668H19.0694C18.7287 29.6879 17.5263 30.6668 16.1001 30.6668H13.8001C13.3764 30.6668 13.0335 31.0101 13.0335 31.4335C13.0335 31.8569 13.3764 32.2002 13.8001 32.2002C16.759 32.2002 19.1668 34.6076 19.1668 37.5668V38.3335C19.1668 38.7569 19.5097 39.1002 19.9335 39.1002H24.4193C24.2518 39.4501 24.1501 39.837 24.1501 40.2502C24.1501 41.7296 25.3541 42.9335 26.8335 42.9335V46.0002H28.3668V42.9335H31.4335H31.8168C33.2963 42.9335 34.5001 41.7295 34.5001 40.2502C34.5001 39.8326 34.396 39.442 34.225 39.0892C35.6534 39.031 36.8001 37.8592 36.8001 36.4168C36.8001 35.9 36.6463 35.4211 36.392 35.0111C37.3091 34.584 37.9501 33.6599 37.9501 32.5835C37.9501 31.8324 37.6379 31.1544 37.1388 30.6668C37.6379 30.1792 37.9501 29.5013 37.9501 28.7502ZM31.8168 41.4002H31.4335H27.6001H26.8335C26.1993 41.4002 25.6835 40.8843 25.6835 40.2502C25.6835 39.616 26.1993 39.1002 26.8335 39.1002H29.1335H31.8168C32.4509 39.1002 32.9668 39.616 32.9668 40.2502C32.9668 40.8843 32.4509 41.4002 31.8168 41.4002ZM34.1168 37.5668H31.8168H29.1335C28.4993 37.5668 27.9835 37.051 27.9835 36.4168C27.9835 35.7827 28.4993 35.2668 29.1335 35.2668H30.2835H34.1168C34.7509 35.2668 35.2668 35.7827 35.2668 36.4168C35.2668 37.051 34.7509 37.5668 34.1168 37.5668ZM35.2668 33.7335H34.1168H30.2835C29.6493 33.7335 29.1335 33.2176 29.1335 32.5835C29.1335 31.9494 29.6493 31.4335 30.2835 31.4335H35.2668C35.9009 31.4335 36.4168 31.9494 36.4168 32.5835C36.4168 33.2176 35.9009 33.7335 35.2668 33.7335ZM35.2668 29.9002H30.2835C29.6493 29.9002 29.1335 29.3843 29.1335 28.7502C29.1335 28.116 29.6493 27.6002 30.2835 27.6002H35.2668C35.9009 27.6002 36.4168 28.116 36.4168 28.7502C36.4168 29.3843 35.9009 29.9002 35.2668 29.9002Z" fill="#FF9560"/>
<path d="M11.4975 9.75842C11.4818 9.53829 11.3725 9.33541 11.1965 9.20211L10.3984 8.59711C10.2075 7.63063 9.35922 6.8999 8.34473 6.8999C7.2 6.8999 6.26629 7.83054 6.25134 8.98016C5.63887 8.87311 5.05343 8.63803 4.52931 8.28498L4.26203 8.10453C4.02772 7.94621 3.72374 7.92896 3.47294 8.06294C3.22291 8.19586 3.06642 8.45643 3.06642 8.73981V9.36876C3.06642 10.2927 3.34491 11.1739 3.86155 11.914L3.28808 12.4943C3.07025 12.714 3.00652 13.0431 3.12564 13.3287C3.24457 13.6139 3.52383 13.7999 3.83308 13.7999H7.54816C9.02984 13.7999 10.2547 12.6705 10.4194 11.221L11.2782 10.3522C11.4331 10.1953 11.5133 9.97893 11.4975 9.75842ZM9.12634 10.3477C8.98413 10.4911 8.90468 10.685 8.90468 10.8868C8.90468 11.6475 8.29595 12.2666 7.54806 12.2666H5.59776C5.71908 11.9873 5.66666 11.6504 5.43983 11.4209C5.08198 11.0586 4.82592 10.6026 4.69635 10.1111C5.42785 10.4196 6.21397 10.5798 7.0181 10.5798C7.44188 10.5798 7.78477 10.2365 7.78477 9.81314V9.00824C7.78477 8.69112 8.03633 8.43324 8.34482 8.43324C8.65331 8.43324 8.90487 8.69112 8.90487 9.00824C8.90487 9.2482 9.01719 9.47427 9.20809 9.61917L9.5735 9.89584L9.12634 10.3477Z" fill="#FF9560"/>
<path d="M25.3002 13.0333V11.5H23.0002C22.5764 11.5 22.2335 11.8433 22.2335 12.2667V14.5667H20.7002V16.1H22.2335V19.1667H23.7669V16.1H25.3002V14.5667H23.7669V13.0333H25.3002Z" fill="#FF9560"/>
<path d="M27.6001 8.43359H18.4001C17.1318 8.43359 16.1001 9.46534 16.1001 10.7336V19.9336C16.1001 21.2019 17.1318 22.2336 18.4001 22.2336H27.6001C28.8684 22.2336 29.9001 21.2019 29.9001 19.9336V10.7336C29.9001 9.46534 28.8684 8.43359 27.6001 8.43359ZM28.3668 19.9336C28.3668 20.3562 28.0231 20.7003 27.6001 20.7003H18.4001C17.9771 20.7003 17.6334 20.3562 17.6334 19.9336V10.7336C17.6334 10.311 17.9771 9.96693 18.4001 9.96693H27.6001C28.0231 9.96693 28.3668 10.311 28.3668 10.7336V19.9336Z" fill="#FF9560"/>
<path d="M11.5 3.8335H2.3C1.03174 3.8335 0 4.86524 0 6.1335V15.3335C0 16.6018 1.03174 17.6335 2.3 17.6335H11.5C12.7683 17.6335 13.8 16.6018 13.8 15.3335V6.1335C13.8 4.86524 12.7683 3.8335 11.5 3.8335ZM12.2667 15.3335C12.2667 15.7561 11.923 16.1002 11.5 16.1002H2.3C1.87699 16.1002 1.53333 15.7561 1.53333 15.3335V6.1335C1.53333 5.71087 1.87699 5.36683 2.3 5.36683H11.5C11.923 5.36683 12.2667 5.71087 12.2667 6.1335V15.3335Z" fill="#FF9560"/>
<path d="M43.7002 0H34.5002C33.2319 0 32.2002 1.03174 32.2002 2.3V11.5C32.2002 12.7683 33.2319 13.8 34.5002 13.8H43.7002C44.9685 13.8 46.0002 12.7683 46.0002 11.5V2.3C46.0002 1.03174 44.9685 0 43.7002 0ZM44.4669 11.5C44.4669 11.9226 44.1232 12.2667 43.7002 12.2667H34.5002C34.0772 12.2667 33.7335 11.9226 33.7335 11.5V7.66667H35.3444C35.7006 9.41409 37.2492 10.7333 39.1002 10.7333C40.9512 10.7333 42.4998 9.41409 42.856 7.66667H44.4669V11.5ZM36.8002 6.9C36.8002 5.63174 37.8319 4.6 39.1002 4.6C40.3685 4.6 41.4002 5.63174 41.4002 6.9C41.4002 8.16826 40.3685 9.2 39.1002 9.2C37.8319 9.2 36.8002 8.16826 36.8002 6.9ZM44.4669 6.13333H42.856C42.4998 4.38591 40.9512 3.06667 39.1002 3.06667C37.2492 3.06667 35.7006 4.38591 35.3444 6.13333H33.7335V2.3C33.7335 1.87738 34.0772 1.53333 34.5002 1.53333H43.7002C44.1232 1.53333 44.4669 1.87738 44.4669 2.3V6.13333Z" fill="#FF9560"/>
<path d="M23.7667 31.4336H22.2334V32.9669H23.7667V31.4336Z" fill="#FF9560"/>
</g>
<defs>
<clipPath id="clip0">
<rect width="46" height="46" fill="white"/>
</clipPath>
</defs>
</svg>
