<svg width="16" height="16" viewBox="0 0 16 16" fill="none" xmlns="http://www.w3.org/2000/svg">
<path fill-rule="evenodd" clip-rule="evenodd" d="M7.56361 0.177734C3.4284 0.177734 0.0634766 3.55734 0.0634766 7.71179C0.0634766 11.8662 3.4284 15.2458 7.56361 15.2458C11.6993 15.2458 15.0643 11.8668 15.0643 7.71179C15.0643 3.55734 11.6993 0.177734 7.56361 0.177734V0.177734ZM14.4161 7.71139C14.4161 7.84328 14.4044 7.97199 14.3965 8.1023C14.3483 7.97997 14.2753 7.82042 14.2578 7.75181C14.2324 7.64756 14.0773 7.28431 14.0773 7.28431C14.0773 7.28431 13.9221 7.07689 13.8189 7.02477C13.7162 6.97265 13.6384 6.84288 13.4573 6.7397C13.2763 6.63545 13.1995 6.58386 13.0449 6.58386C12.8893 6.58386 12.7352 6.37591 12.5536 6.2722C12.3726 6.16902 12.3471 6.22061 12.3471 6.22061C12.3471 6.22061 12.5536 6.53174 12.5536 6.60939C12.5536 6.68704 12.7855 6.81681 13.019 6.76469C13.019 6.76469 13.1736 7.0503 13.2508 7.12795C13.3281 7.2056 13.2249 7.28378 13.0703 7.38749C12.9152 7.49067 12.9411 7.46514 12.8628 7.54279C12.7855 7.62044 12.5277 7.75127 12.4498 7.80233C12.3726 7.85392 12.0628 8.00975 11.9083 7.85392C11.8326 7.77893 11.8558 7.62097 11.805 7.51673C11.7531 7.41302 11.211 6.60886 10.9527 6.24614C10.9077 6.18232 10.7976 5.98553 10.7208 5.93501C10.6435 5.88235 10.9019 5.88236 10.9019 5.88236C10.9019 5.88236 10.9019 5.70046 10.8759 5.57122C10.8494 5.44145 10.9019 5.26009 10.9019 5.26009C10.9019 5.26009 10.6435 5.41539 10.5651 5.46751C10.4884 5.51963 10.4106 5.36433 10.3079 5.23403C10.2046 5.10479 10.1009 4.94843 10.0754 4.81866C10.0495 4.68942 10.2046 4.6373 10.2046 4.6373L10.4365 4.50806C10.4365 4.50806 10.7208 4.45647 10.9019 4.482C11.0824 4.50806 11.3661 4.53412 11.3661 4.53412C11.3661 4.53412 11.4434 4.35222 11.3402 4.27457C11.2375 4.19692 11.004 4.06715 10.9008 4.09321C10.7981 4.11874 10.9521 3.96344 11.0808 3.85973L10.7949 3.80761C10.7949 3.80761 10.535 3.93738 10.4571 3.96344C10.3799 3.98897 10.2454 4.04109 10.1416 4.17086C10.0389 4.30063 10.1829 4.482 10.0797 4.53412C9.97697 4.58624 9.90709 4.61177 9.82927 4.6373C9.75197 4.66336 9.50633 4.6373 9.50633 4.6373C9.2395 4.6373 9.4105 4.88195 9.47986 4.96864L9.27339 4.71548L9.12039 4.35276C9.12039 4.35276 8.90015 4.19746 8.79692 4.14587C8.69368 4.09374 8.37551 3.91238 8.37551 3.91238L8.39774 4.14587L8.69686 4.45008L8.72333 4.457L8.87898 4.66442L8.53539 4.69048V4.48519C8.21139 4.40647 8.2961 4.32563 8.25957 4.30063C8.1828 4.24904 8.00333 4.11874 8.00333 4.11874C8.00333 4.11874 7.69945 4.17086 7.62163 4.19692C7.5438 4.22298 7.5221 4.30063 7.36804 4.35222C7.21239 4.40435 7.14251 4.482 7.09116 4.55965C7.03981 4.6373 6.87145 4.87078 6.76928 4.97449C6.66551 5.07873 6.47387 5.05214 6.39657 5.05214C6.31875 5.05214 5.94604 4.94843 5.94604 4.94843V4.50859C5.94604 4.50859 5.99634 4.26181 5.97093 4.18416L6.19699 4.14587L6.57445 4.06768L6.6851 3.9895L6.84392 3.78208C6.84392 3.78208 6.66551 3.65231 6.79416 3.47095C6.8561 3.38373 7.07898 3.36724 7.18222 3.28959C7.28492 3.21194 7.4411 3.15982 7.4411 3.15982C7.4411 3.15982 7.62216 3.00452 7.80269 2.82262C7.80269 2.82262 7.93186 2.74444 8.08645 2.69232C8.08645 2.69232 8.52586 3.08164 8.60368 3.08164C8.68151 3.08164 8.96527 2.90027 8.96527 2.90027C8.96527 2.90027 9.04256 2.66732 9.01715 2.58914C8.99121 2.51149 8.86204 2.25195 8.86204 2.25195C8.86204 2.25195 8.78474 2.38172 8.70745 2.48543C8.63015 2.58914 8.57827 2.71891 8.57827 2.71891C8.57827 2.71891 8.21668 2.69392 8.19127 2.61627C8.1648 2.53808 8.11398 2.40991 8.08751 2.33279C8.06263 2.25461 7.85563 2.25727 7.70157 2.30939C7.54592 2.36151 7.72645 2.02964 7.72645 2.02964C7.72645 2.02964 7.8821 1.83392 7.9848 1.83392C8.08751 1.83392 8.32098 1.70095 8.42315 1.67542C8.52692 1.64936 8.83768 1.53076 8.9658 1.53076C9.09498 1.53076 9.25009 1.58661 9.32792 1.58661C9.40574 1.58661 9.71491 1.58661 9.71491 1.58661L10.2565 1.54299C10.2565 1.54299 10.7219 1.71585 10.5662 1.82009C10.5662 1.82009 10.7478 1.93231 10.8251 2.00996C10.8976 2.08335 11.085 1.94241 11.1925 1.88231C13.1243 3.10025 14.4161 5.25477 14.4161 7.71139V7.71139ZM2.09582 3.65191C2.09582 3.75562 1.95499 3.78062 2.09582 4.04124C2.27582 4.37845 2.12123 4.53429 2.12123 4.53429C2.12123 4.53429 1.68181 4.84544 1.60451 4.89757C1.52722 4.94969 1.32074 5.23478 1.44939 5.15659C1.57857 5.07894 1.73316 5.00128 1.60451 5.20871C1.47533 5.41668 1.24292 5.75336 1.19156 5.88367C1.14021 6.01398 0.881852 6.32459 0.881852 6.48043C0.881852 6.63627 0.778614 6.94795 0.804556 7.07773C0.822027 7.16815 0.76485 7.43462 0.719849 7.54419C0.75479 6.08578 1.24345 4.74173 2.05029 3.64233C2.07676 3.64499 2.09582 3.65191 2.09582 3.65191V3.65191ZM2.9253 2.65587C3.55689 2.071 4.297 1.6046 5.11334 1.28906C5.03287 1.39265 4.93546 1.49889 4.93546 1.49889C4.93546 1.49889 4.75493 1.49836 4.41876 1.86171C4.08365 2.22452 4.16094 2.12094 4.08365 2.22399C4.00635 2.32705 4.03176 2.35361 3.85071 2.48376C3.67071 2.61284 3.59289 2.76848 3.59289 2.76848L3.30859 2.87207L3.07671 2.76848C3.07671 2.76848 2.86919 2.84657 2.89513 2.74245C2.90254 2.71483 2.91366 2.68615 2.9253 2.65587V2.65587ZM6.02025 3.26094L5.91754 3.10577L6.02025 2.87247L6.26909 2.97238V2.50951L6.5068 2.38037L6.70428 2.66522L7.00818 3.00267L6.80646 3.15785L6.26856 3.26147V2.98673L6.02025 3.26094V3.26094ZM9.37815 5.70161C9.4385 5.65374 9.63597 5.77926 9.63597 5.77926C9.63597 5.77926 10.2813 5.90903 10.3846 5.98668C10.4883 6.06486 10.6688 6.11699 10.7207 6.19517C10.7726 6.27282 10.9526 6.50631 10.978 6.58396C11.0045 6.66161 11.1337 6.94775 11.1596 7.05093C11.1855 7.15464 11.2628 7.41418 11.3401 7.54396C11.4174 7.67426 11.8568 8.24441 12.0114 8.50396L12.4773 8.42631C12.4773 8.42631 12.4249 8.65926 12.3735 8.73744C12.3222 8.81509 12.1671 9.02252 12.0898 9.12623C12.0119 9.22994 11.9092 9.38578 11.7541 9.51502C11.5995 9.64426 11.5985 9.77403 11.5217 9.87828C11.4444 9.98199 11.3407 10.2155 11.3407 10.2155C11.3407 10.2155 11.3925 10.7346 11.418 10.8383C11.4434 10.942 11.2374 11.2271 11.2374 11.2271L11.0045 11.4611L10.6932 11.8754L10.7186 12.2642C10.7186 12.2642 10.4836 12.4466 10.3538 12.5498C10.2257 12.653 10.2458 12.7312 10.1426 12.8354C10.0399 12.9386 9.63597 13.1205 9.53274 13.1465C9.4295 13.1726 8.85986 13.2502 8.85986 13.2502V13.0173L8.84822 12.7577C8.84822 12.7577 8.76986 12.4466 8.69204 12.3429C8.61422 12.2392 8.6481 12.0828 8.51893 11.9536C8.38975 11.8238 8.3421 11.7206 8.31616 11.6419C8.29022 11.5643 8.34422 11.3313 8.34422 11.3313C8.34422 11.3313 8.44852 11.0457 8.49987 10.942C8.55175 10.8383 8.5004 10.683 8.44851 10.5787C8.39663 10.4745 8.37175 10.2149 8.37175 10.1378C8.37175 10.0602 8.16422 9.92987 8.08693 9.85221C8.00964 9.77456 8.03558 9.67032 8.03558 9.56767C8.03558 9.4629 7.95829 9.22994 7.9837 9.04805C8.00964 8.86668 7.75182 8.99593 7.5967 9.04805C7.44158 9.10017 7.33888 8.99593 7.33888 8.84009C7.33888 8.68426 7.05512 8.81456 6.87406 8.91774C6.69248 9.02145 6.48654 9.02145 6.27901 9.09964C6.07307 9.17729 5.97037 9.02199 5.97037 9.02199C5.97037 9.02199 5.78878 8.86668 5.66066 8.7885C5.53096 8.71085 5.40178 8.55555 5.29802 8.42578C5.19532 8.29547 4.93644 7.90615 4.91155 7.75138C4.88561 7.59502 4.91155 7.49077 4.91155 7.30941C4.91155 7.12805 4.91155 7.02433 4.93697 6.89456C4.96291 6.76479 5.0402 6.60895 5.11802 6.47918C5.19532 6.34941 5.47961 6.19411 5.55637 6.14198C5.63366 6.09039 5.81472 5.93509 5.81472 5.83085C5.81472 5.72714 5.91848 5.67555 5.96931 5.5713C6.02172 5.46759 6.20225 5.20858 6.43465 5.31229C6.43465 5.31229 6.64059 5.28676 6.71789 5.2607C6.79518 5.23464 7.00165 5.15752 7.10382 5.1054C7.20706 5.05327 7.46435 5.02881 7.46435 5.02881C7.46435 5.02881 7.66764 5.11018 7.74493 5.11018C7.82223 5.11018 8.07423 5.06497 8.07423 5.06497C8.07423 5.06497 8.19069 5.441 8.19069 5.51918C8.19069 5.59736 8.26799 5.67448 8.39769 5.7266C8.52528 5.77926 9.1198 5.90956 9.37815 5.70161V5.70161ZM12.3472 10.7861C12.3472 10.8637 12.3213 11.0714 12.2953 11.175C12.2683 11.2786 12.2175 11.4603 12.1921 11.5628C12.1662 11.6669 12.037 11.8741 11.9602 11.9262C11.8829 11.9782 11.7532 12.1339 11.6765 12.1594C11.5992 12.1854 11.5467 11.9777 11.5727 11.8741C11.5992 11.7705 11.7278 11.4858 11.7278 11.4858C11.7278 11.4858 11.7537 11.3307 11.7792 11.2265C11.8056 11.1235 12.1153 10.9938 12.1153 10.9938L12.3223 10.605C12.3213 10.6045 12.3472 10.7091 12.3472 10.7861V10.7861ZM0.888489 9.24097C0.921841 9.24948 0.969488 9.27395 1.03672 9.33405C1.13413 9.41916 1.19184 9.46278 1.32101 9.51544C1.44966 9.5681 1.50154 9.64469 1.65666 9.72288C1.81177 9.80108 1.76042 9.74948 1.96636 9.98246C2.17336 10.2154 2.14742 10.2154 2.19877 10.3458C2.25012 10.4761 2.32794 10.6048 2.37983 10.6835C2.43171 10.7612 2.58629 10.8128 2.66359 10.8649C2.74088 10.917 2.87005 10.9686 2.94735 10.9686C3.02517 10.9686 3.25758 11.2021 3.38675 11.2277C3.51593 11.2543 3.51593 11.5139 3.51593 11.5139L3.38675 11.8766L3.28299 12.2655L3.38675 12.5766C3.38675 12.5766 3.23111 12.7069 3.12893 12.7069C3.03364 12.7069 3.00135 12.7676 2.89705 12.7389C1.91236 11.8149 1.19819 10.6064 0.888489 9.24097V9.24097Z" fill="#F2994A"/>
</svg>
