<svg width="65" height="46" viewBox="0 0 65 46" fill="none" xmlns="http://www.w3.org/2000/svg">
<path d="M60.0118 13.9436H37.7392C36.748 10.4921 34.8019 7.34524 32.0767 4.90514C27.9463 1.20641 22.6112 -0.49171 17.0528 0.122675C8.1388 1.10868 1.00971 8.30426 0.101497 17.2322C-0.394451 22.1059 0.938325 26.9242 3.85392 30.7996C6.64807 34.5133 10.6576 37.0806 15.1709 38.0533L19.919 42.8013C20.3176 43.2 20.8468 43.4111 21.3866 43.411C21.6549 43.411 21.9256 43.3588 22.1843 43.2517C22.9639 42.9287 23.4674 42.1749 23.4674 41.3312V38.0071C24.2482 37.8326 25.0087 37.6113 25.7473 37.3476V37.4793C25.7473 39.8086 27.6424 41.7037 29.9717 41.7037H37.0652L40.8439 45.4825C41.1819 45.8205 41.6305 45.9995 42.088 45.9995C42.3154 45.9995 42.5448 45.9552 42.7641 45.8645C43.4249 45.5908 43.8519 44.9518 43.8519 44.2365V41.7037H60.0119C62.3413 41.7037 64.2363 39.8086 64.2363 37.4793V18.1678C64.2362 15.8387 62.3411 13.9436 60.0118 13.9436ZM22.2851 36.1935C21.8052 36.279 21.4559 36.6962 21.4559 37.1836V41.3313C21.4559 41.3553 21.4559 41.3761 21.4145 41.3933C21.3731 41.4103 21.3585 41.3957 21.3414 41.3789L16.3807 36.4183C16.2401 36.2776 16.0608 36.1817 15.8656 36.143C11.7148 35.3181 8.01987 32.9909 5.46133 29.5903C2.85111 26.1208 1.65822 21.8043 2.10261 17.4358C2.49417 13.5861 4.23721 9.92409 7.01053 7.12417C9.78435 4.32387 13.4291 2.54747 17.2739 2.12228C17.9429 2.04826 18.6073 2.01162 19.2669 2.01162C23.5191 2.01162 27.5327 3.53648 30.7346 6.40365C34.3833 9.67091 36.4759 14.3516 36.4759 19.2457C36.476 27.5992 30.5079 34.7267 22.2851 36.1935ZM62.2246 37.4794C62.2246 38.6995 61.2319 39.6922 60.0118 39.6922H42.8461C42.2906 39.6922 41.8402 40.1425 41.8402 40.698V43.6342L38.193 39.9869C38.0044 39.7982 37.7486 39.6923 37.4818 39.6923H29.9718C28.7517 39.6923 27.7591 38.6997 27.7591 37.4796V36.4987C34.1978 33.3341 38.4877 26.7308 38.4877 19.2459C38.4877 18.1353 38.3897 17.035 38.2016 15.9553H60.0119C61.232 15.9553 62.2247 16.9479 62.2247 18.168V37.4794H62.2246Z" fill="#FF9560"/>
<path d="M56.4316 21.7477C56.0389 21.3549 55.402 21.3549 55.0092 21.7477L44.9917 31.7652L40.341 27.1145C39.9482 26.7217 39.3113 26.7217 38.9186 27.1145C38.5258 27.5073 38.5258 28.1441 38.9186 28.5368L44.2805 33.8987C44.4768 34.095 44.7343 34.1933 44.9916 34.1933C45.2489 34.1933 45.5065 34.0951 45.7028 33.8987L56.4314 23.1701C56.8244 22.7773 56.8244 22.1404 56.4316 21.7477Z" fill="#FF9560"/>
<path d="M19.2442 26.8232C19.2438 26.8232 19.2433 26.8232 19.2428 26.8232C18.6874 26.8232 18.2363 27.2743 18.2363 27.8297C18.2363 27.8298 18.2363 27.8301 18.2363 27.8303C18.2363 27.8306 18.2363 27.8307 18.2363 27.8309C18.2363 28.3864 18.6874 28.8374 19.2428 28.8374C19.2432 28.8374 19.2438 28.8374 19.2442 28.8374C19.7996 28.8374 20.2506 28.3864 20.2506 27.8309C20.2506 27.8308 20.2506 27.8306 20.2506 27.8303C20.2506 27.8301 20.2506 27.8299 20.2506 27.8297C20.2506 27.2743 19.7996 26.8232 19.2442 26.8232Z" fill="#FF9560"/>
<path d="M23.7235 11.5465C22.505 10.3281 20.9135 9.6571 19.2421 9.65723C15.7299 9.65748 12.8726 12.5152 12.8726 16.0273C12.8726 16.5827 13.3228 17.0331 13.8784 17.0331C14.4338 17.0331 14.8842 16.5828 14.8842 16.0273C14.8842 13.6242 16.8393 11.6689 19.2424 11.6687C20.3764 11.6687 21.4626 12.1303 22.3011 12.9688C23.1396 13.8072 23.6013 14.8936 23.6013 16.0276C23.6011 17.938 22.3246 19.6548 20.4971 20.2029C19.1451 20.6082 18.237 21.8196 18.237 23.2169V23.5374C18.237 24.0928 18.6873 24.5432 19.2429 24.5432C19.7983 24.5432 20.2487 24.0929 20.2487 23.5374V23.2169C20.2487 22.7148 20.5808 22.2779 21.0751 22.1297C23.7468 21.3285 25.6129 18.8194 25.613 16.0278C25.6129 14.3565 24.9419 12.7649 23.7235 11.5465Z" fill="#FF9560"/>
</svg>
