<?xml version="1.0" standalone="no"?>
<!DOCTYPE svg PUBLIC "-//W3C//DTD SVG 20010904//EN"
 "http://www.w3.org/TR/2001/REC-SVG-20010904/DTD/svg10.dtd">
<svg version="1.0" xmlns="http://www.w3.org/2000/svg"
 width="500.000000pt" height="500.000000pt" viewBox="0 0 500.000000 500.000000"
 preserveAspectRatio="xMidYMid meet">
<metadata>
Created by potrace 1.11, written by Peter Selinger 2001-2013
</metadata>
<g transform="translate(0.000000,500.000000) scale(0.100000,-0.100000)"
fill="#000000" stroke="none">
<path d="M0 2500 l0 -2500 2500 0 2500 0 0 2500 0 2500 -2500 0 -2500 0 0
-2500z m2946 743 c-7 -91 -24 -658 -27 -955 -3 -229 -1 -239 62 -253 27 -6 29
-10 29 -56 l0 -49 -275 0 -275 0 0 38 c0 47 6 55 55 73 22 8 45 25 51 37 12
25 27 866 17 953 l-6 52 -59 25 c-58 25 -58 25 -58 68 0 24 4 45 9 48 32 20
376 93 445 95 l39 1 -7 -77z m-1586 -425 c0 -50 -5 -59 -42 -75 -20 -9 -28
-20 -28 -39 0 -24 104 -500 117 -534 3 -8 38 83 78 202 l73 217 -15 58 c-19
75 -29 92 -59 103 -23 9 -25 15 -22 57 l3 48 253 3 253 2 -3 -52 c-3 -51 -3
-52 -47 -66 -43 -14 -43 -15 -38 -54 12 -93 111 -528 117 -516 17 33 161 520
158 536 -2 9 -20 25 -40 35 -36 18 -38 21 -38 68 l0 49 180 0 c201 0 201 0
184 -67 -7 -28 -16 -38 -43 -47 -19 -6 -43 -22 -53 -36 -22 -30 -240 -603
-265 -697 -13 -46 -24 -68 -38 -74 -28 -11 -285 -32 -293 -24 -4 4 -34 106
-68 227 l-61 221 -55 -139 c-30 -76 -65 -172 -77 -211 -17 -58 -26 -74 -44
-77 -37 -8 -278 -28 -282 -24 -2 2 -54 174 -116 383 -61 209 -118 393 -126
408 -8 16 -30 35 -49 43 -32 14 -34 17 -34 64 l0 50 260 0 260 0 0 -42z m2190
-7 l0 -48 -61 -12 c-66 -13 -84 -26 -221 -160 l-77 -75 41 -75 c111 -205 238
-362 333 -412 39 -21 45 -28 45 -56 0 -40 -27 -56 -118 -73 -215 -39 -400 106
-526 413 l-37 88 123 150 c68 82 124 158 126 168 2 14 -7 21 -42 30 l-46 11 0
50 0 50 230 0 230 0 0 -49z m460 -551 c69 -35 97 -105 78 -195 -24 -116 -166
-185 -291 -141 -75 27 -110 81 -110 166 0 120 78 189 216 190 49 0 79 -6 107
-20z"/>
</g>
</svg>
