<svg width="616" height="359" viewBox="0 0 616 359" fill="none" xmlns="http://www.w3.org/2000/svg">
<path d="M129 250C163.092 221.208 217.012 170.098 252.295 261.231C285.5 347 475.225 130.413 515.146 101.621" stroke="#061A40" stroke-opacity="0.2"/>
<path d="M330.299 232.944C329.452 232.356 328.918 232.122 328.22 232.377L327.386 232.689L326.143 230.988L335.128 224.187L336.23 225.995L335.497 227.324L335.554 227.281C335.393 227.54 336.198 228.251 337.054 228.97L345.26 235.923L342.002 226.317L340.117 224.829C339.531 224.407 339.22 224.232 338.742 224.367L338.1 224.579L336.801 222.921L345.616 216.248L346.745 218.035L345.723 219.629C345.54 219.859 346.396 220.577 347.224 221.317L355.323 228.306L351.145 217.073C351.048 216.828 350.945 216.633 350.835 216.488C350.594 216.169 350.249 216.066 349.771 216.201L348.701 216.555L347.373 214.918L353.722 210.112L354.909 211.856L354.205 212.753C353.713 213.398 353.75 213.918 354.08 214.943L354.052 214.964L358.007 228.141L359.227 231.226L354.293 235.781L346.067 229.39L347.782 235.426L349.08 238.907L344.231 243.398L330.299 232.944Z" fill="#2F2A95"/>
<path d="M356.122 195.45L359.624 200.725L371.062 216.483C371.932 217.692 372.482 218.005 373.23 217.757L374.335 217.331L375.634 218.989L366.082 226.22L365.009 224.39L365.741 223.472C366.303 222.682 366.207 222.026 365.183 220.614L363.113 217.762L354.417 206.215C353.913 205.549 352.885 204.368 352.693 204.468L350.259 205.081L349.025 203.509C350.161 201.83 354.279 196.845 356.122 195.45ZM368.203 203.341C368.194 203.211 368.135 203.074 368.047 202.958C367.938 202.813 367.765 202.762 367.438 202.919L366 203.552L364.671 201.915L372.636 195.886L373.779 197.572L372.581 198.934C372.032 199.623 371.769 200.277 371.688 201.113L370.979 206.478C376.538 209.286 381.486 211.052 385.003 209.984L385.707 211.091C385.377 212.07 384.692 213.226 383.332 214.256C379.193 217.388 374.012 215.844 368.035 211.895L368.203 203.341Z" fill="#2F2A95"/>
<path d="M392.932 206.531C390.892 208.076 388.589 207.861 387.12 205.92C385.52 203.806 386.133 201.201 388.287 199.57C390.357 198.004 392.509 198.197 393.956 200.108C395.606 202.23 395.03 204.943 392.932 206.531Z" fill="#FF9560"/>
<g filter="url(#filter0_d)">
<circle cx="85.069" cy="269.069" r="77.069" fill="#FF9560"/>
</g>
<path d="M51.2052 277L51.1892 276.296L50.3252 276.136C49.7172 276.024 49.6212 275.72 49.6372 275.24L49.7652 267.912C49.7652 267.736 49.7812 267.464 49.7972 267.208L51.4612 267.304C51.9892 267.336 52.2292 267.56 52.3572 268.104L52.6612 269.368L53.3972 269.336L53.3812 266.072L52.4212 266.36H45.5572L44.5972 266.072L44.4852 269.336L45.2212 269.368L45.5732 268.104C45.7172 267.56 45.9412 267.336 46.4692 267.304L48.1012 267.208C48.1172 267.464 48.1332 267.736 48.1332 267.912L48.0692 275.24C48.0692 275.8 47.9412 276.024 47.4292 276.12L46.5172 276.296L46.4852 277H51.2052ZM54.0767 269.784L54.1087 270.408L55.2607 270.648C55.3087 270.664 55.3407 271.032 55.3407 271.384V273.64C55.3407 273.928 55.3087 274.936 55.3087 275.208C55.3087 276.568 56.1887 277.208 57.2127 277.208C58.3007 277.208 59.4527 276.456 60.0927 275.864L59.9327 277.128C60.6047 277.128 62.1247 276.744 62.6687 276.488L62.6367 275.896L61.3567 275.624C61.2927 275.608 61.2607 275.208 61.2767 274.824L61.3887 271.384L61.5167 269.176C60.8127 269.176 59.1487 269.496 58.5567 269.784L58.5887 270.408L59.7887 270.632C59.9007 270.648 59.9327 270.968 59.9327 271.352L59.9007 274.168L59.8207 275.496C59.3247 275.784 58.8287 276.024 58.1567 276.024C57.3407 276.024 56.7327 275.544 56.7327 274.008L56.8287 271.336L56.9567 269.176C56.2527 269.176 54.6687 269.496 54.0767 269.784ZM67.4294 273.544C67.4294 275.736 68.6134 277.24 70.4534 277.24C71.7974 277.24 72.9334 276.456 73.5894 275.608L73.2854 275.192C72.5654 275.64 71.7814 275.896 71.0774 275.896C69.6374 275.896 68.8054 274.824 68.8054 272.888C68.8054 272.76 68.8054 272.632 68.8214 272.504H73.6534C73.7334 272.296 73.7654 271.992 73.7654 271.72C73.7654 270.344 72.9014 269.112 71.1414 269.112C68.9814 269.112 67.4294 271.032 67.4294 273.544ZM70.7254 269.992C71.5894 269.992 72.1814 270.552 72.1814 271.272C72.1814 271.56 72.0854 271.72 71.9894 271.736L68.8854 271.912C69.0934 270.728 69.7334 269.992 70.7254 269.992ZM74.8319 269.8L74.8639 270.424L76.0959 270.776C76.1599 270.792 76.1759 271.256 76.1759 271.624L76.1919 274.088L76.1279 275.352C76.0959 275.912 75.9679 276.12 75.5839 276.2L74.9119 276.344L74.8479 277H78.5119L78.5279 276.344L77.9679 276.216C77.6159 276.136 77.5199 275.912 77.5359 275.352L77.6959 270.792C78.1919 270.472 78.7999 270.264 79.2959 270.264C79.9839 270.264 80.6559 270.808 80.6399 272.344L80.6239 274.456L80.5759 275.352C80.5439 275.912 80.3999 276.136 80.0639 276.216L79.5679 276.344L79.5199 277H82.9759L82.9919 276.344L82.4319 276.216C82.0799 276.136 81.9679 275.912 81.9839 275.352L82.1119 271.208C82.1119 271.016 82.1119 270.856 82.0799 270.696C82.5759 270.44 83.2479 270.264 83.8079 270.264C84.5439 270.264 85.1999 270.808 85.1839 272.344L85.1679 274.456L85.1359 275.352C85.1199 275.912 84.9599 276.12 84.6079 276.216L84.1279 276.344L84.0639 277H87.7439V276.344L87.1199 276.216C86.7039 276.136 86.5279 275.912 86.5439 275.352L86.6559 271.288C86.7039 269.656 85.6159 269.08 84.7519 269.08C83.8239 269.08 82.6399 269.688 81.9519 270.232C81.6159 269.448 80.8639 269.08 80.2079 269.08C79.2319 269.08 78.0799 269.816 77.4239 270.408L77.6159 269.192C77.0559 269.192 75.3919 269.544 74.8319 269.8ZM88.3583 269.784L88.3903 270.392L89.6703 270.76C89.7183 270.776 89.7183 271.16 89.7183 271.512L89.6543 275.656L89.5583 278.952C89.5263 279.512 89.3983 279.72 89.0143 279.8L88.3423 279.944L88.2783 280.6H92.5343L92.5183 279.944L91.6223 279.8C91.1263 279.72 91.0463 279.496 91.0463 278.968V276.856C91.4463 277.096 91.9903 277.24 92.5503 277.24C94.6303 277.24 96.5023 275.352 96.5023 272.52C96.5023 270.232 95.2703 269.096 93.7983 269.096C92.7903 269.096 91.6703 269.64 90.9823 270.456L91.1423 269.16C90.5023 269.16 88.9023 269.528 88.3583 269.784ZM92.5343 276.408C91.7823 276.408 91.0943 276.04 91.0943 274.904L91.2223 270.872C91.7503 270.392 92.3103 270.152 92.9023 270.152C93.9743 270.152 94.9823 271.096 94.9823 273.144C94.9823 275.4 93.9263 276.408 92.5343 276.408ZM97.6444 269.832L97.6764 270.456L98.9084 270.808C98.9724 270.824 98.9884 271.304 98.9884 271.656L99.0044 274.088L98.9404 275.352C98.9084 275.912 98.7804 276.12 98.3964 276.2L97.7244 276.344L97.6604 277H101.916V276.344L100.972 276.184C100.46 276.104 100.332 275.896 100.348 275.352L100.508 271.128C100.892 270.664 101.164 270.488 101.468 270.488C101.852 270.488 102.028 270.664 102.652 271.72C103.292 271.576 103.708 271.112 103.708 270.456C103.708 269.704 103.148 269.144 102.412 269.144C101.564 269.144 100.796 269.864 100.236 270.76L100.428 269.224C99.8844 269.224 98.2044 269.592 97.6444 269.832ZM104.351 273.544C104.351 275.736 105.535 277.24 107.375 277.24C108.719 277.24 109.855 276.456 110.511 275.608L110.207 275.192C109.487 275.64 108.703 275.896 107.999 275.896C106.559 275.896 105.727 274.824 105.727 272.888C105.727 272.76 105.727 272.632 105.743 272.504H110.575C110.655 272.296 110.687 271.992 110.687 271.72C110.687 270.344 109.823 269.112 108.063 269.112C105.903 269.112 104.351 271.032 104.351 273.544ZM107.647 269.992C108.511 269.992 109.103 270.552 109.103 271.272C109.103 271.56 109.007 271.72 108.911 271.736L105.807 271.912C106.015 270.728 106.655 269.992 107.647 269.992ZM112.202 271.496C112.202 272.984 113.37 273.448 114.106 273.752C115.514 274.328 116.026 274.712 116.026 275.384C116.026 276.04 115.498 276.456 114.698 276.456C113.482 276.456 112.762 275.528 112.666 274.552L111.93 274.6C111.93 275.08 111.962 276.184 112.138 276.92C112.474 277.016 113.53 277.272 114.442 277.272C116.25 277.272 117.338 276.296 117.338 274.872C117.338 273.304 116.01 272.904 114.986 272.472C114.106 272.104 113.514 271.72 113.514 270.984C113.514 270.344 113.994 269.88 114.714 269.88C115.546 269.88 116.058 270.392 116.266 271.688L117.002 271.624C117.018 271.08 117.05 270.024 117.018 269.528C116.458 269.272 115.514 269.08 114.874 269.08C113.29 269.08 112.202 270.088 112.202 271.496ZM118.935 271.272C118.935 271.752 119.191 272.024 119.623 272.024C120.007 272.024 120.455 271.816 120.679 271.544C120.551 271.176 120.439 270.84 120.439 270.632C120.439 270.248 120.823 269.976 121.479 269.976C122.503 269.976 123.047 270.648 123.015 271.752L122.999 272.52L121.383 273C119.527 273.56 118.663 274.248 118.663 275.416C118.663 276.488 119.463 277.128 120.535 277.128C121.495 277.128 122.455 276.616 123.095 275.848C123.063 276.648 123.543 277.208 124.375 277.208C124.967 277.208 125.495 276.904 125.719 276.456L125.479 276.072C125.303 276.184 125.047 276.264 124.855 276.264C124.487 276.264 124.327 276.008 124.327 275.48L124.439 271.64C124.487 269.912 123.799 269.096 122.231 269.096C120.423 269.096 118.935 270.12 118.935 271.272ZM121.431 276.088C120.695 276.088 120.279 275.688 120.279 275.048C120.279 274.408 120.567 274.024 121.479 273.72L122.983 273.24L122.967 273.768L122.951 275.368C122.535 275.816 122.039 276.088 121.431 276.088Z" fill="white"/>
<g filter="url(#filter1_d)">
<circle cx="526.069" cy="85.069" r="77.069" fill="#2F2A95"/>
</g>
<path d="M494.221 93L494.205 92.296L493.341 92.136C492.733 92.024 492.637 91.72 492.653 91.24L492.781 83.912C492.781 83.736 492.797 83.464 492.813 83.208L494.477 83.304C495.005 83.336 495.245 83.56 495.373 84.104L495.677 85.368L496.413 85.336L496.397 82.072L495.437 82.36H488.573L487.613 82.072L487.501 85.336L488.237 85.368L488.589 84.104C488.733 83.56 488.957 83.336 489.485 83.304L491.117 83.208C491.133 83.464 491.149 83.736 491.149 83.912L491.085 91.24C491.085 91.8 490.957 92.024 490.445 92.12L489.533 92.296L489.501 93H494.221ZM497.092 85.784L497.124 86.408L498.276 86.648C498.324 86.664 498.356 87.032 498.356 87.384V89.64C498.356 89.928 498.324 90.936 498.324 91.208C498.324 92.568 499.204 93.208 500.228 93.208C501.316 93.208 502.468 92.456 503.108 91.864L502.948 93.128C503.62 93.128 505.14 92.744 505.684 92.488L505.652 91.896L504.372 91.624C504.308 91.608 504.276 91.208 504.292 90.824L504.404 87.384L504.532 85.176C503.828 85.176 502.164 85.496 501.572 85.784L501.604 86.408L502.804 86.632C502.916 86.648 502.948 86.968 502.948 87.352L502.916 90.168L502.836 91.496C502.34 91.784 501.844 92.024 501.172 92.024C500.356 92.024 499.748 91.544 499.748 90.008L499.844 87.336L499.972 85.176C499.268 85.176 497.684 85.496 497.092 85.784ZM510.429 89.672C510.429 91.704 511.565 93.288 513.757 93.288C516.301 93.288 517.725 91.064 517.725 88.728C517.725 86.664 516.573 85.08 514.429 85.08C511.853 85.08 510.429 87.4 510.429 89.672ZM516.141 89.416C516.141 91.384 515.341 92.44 514.189 92.44C512.749 92.44 512.013 90.84 512.013 89C512.013 87.032 512.829 85.928 513.981 85.928C515.485 85.928 516.141 87.656 516.141 89.416ZM518.351 81.896L518.383 82.52L519.551 82.872C519.615 82.888 519.663 83.224 519.663 83.688L519.583 90.296L519.519 92.408C519.503 92.68 519.855 92.904 520.111 92.952C520.847 93.096 521.599 93.192 522.207 93.192C524.943 93.192 526.367 91.064 526.367 88.552C526.367 86.232 525.151 85.112 523.759 85.112C522.703 85.112 521.711 85.672 521.103 86.28L521.167 83.736L521.311 81.304C520.719 81.304 518.895 81.656 518.351 81.896ZM522.463 92.376C521.535 92.376 520.975 91.912 520.975 90.792L521.087 86.904C521.567 86.456 522.127 86.184 522.751 86.184C523.903 86.184 524.847 87.192 524.847 89.224C524.847 91.32 523.839 92.376 522.463 92.376ZM530.063 91.8L530.159 87.432L530.271 85.16C529.583 85.16 527.887 85.56 527.295 85.784L527.311 86.408L528.527 86.712C528.623 86.728 528.703 86.984 528.703 87.224L528.671 91.544L528.623 93.336C528.575 95.208 528.287 95.624 527.823 95.624C527.439 95.624 527.231 95.432 526.623 94.456C525.999 94.616 525.695 95.064 525.695 95.592C525.695 96.36 526.367 96.76 527.103 96.76C528.687 96.76 529.999 94.952 530.063 91.8ZM530.623 82.12C530.623 81.576 530.255 81.272 529.695 81.272C529.087 81.272 528.687 81.656 528.687 82.216C528.687 82.76 529.055 83.096 529.615 83.096C530.239 83.096 530.623 82.68 530.623 82.12ZM532.086 89.544C532.086 91.736 533.27 93.24 535.11 93.24C536.454 93.24 537.59 92.456 538.246 91.608L537.942 91.192C537.222 91.64 536.438 91.896 535.734 91.896C534.294 91.896 533.462 90.824 533.462 88.888C533.462 88.76 533.462 88.632 533.478 88.504H538.31C538.39 88.296 538.422 87.992 538.422 87.72C538.422 86.344 537.558 85.112 535.798 85.112C533.638 85.112 532.086 87.032 532.086 89.544ZM535.382 85.992C536.246 85.992 536.838 86.552 536.838 87.272C536.838 87.56 536.742 87.72 536.646 87.736L533.542 87.912C533.75 86.728 534.39 85.992 535.382 85.992ZM541.68 83.784C541.04 84.536 540.304 85.208 539.504 85.8L539.616 86.456L540.4 86.424L540.352 89.928C540.352 90.456 540.304 91.24 540.304 91.544C540.304 92.456 540.832 93.128 542.048 93.128C543.008 93.128 544 92.696 544.512 92.28L544.336 91.672C543.776 91.928 543.168 92.088 542.736 92.088C542.096 92.088 541.728 91.72 541.728 90.824C541.728 90.264 541.872 87.352 541.92 86.392L544.032 86.52C544.24 86.328 544.432 86.072 544.432 85.752C544.432 85.48 544.288 85.304 543.808 85.304C543.504 85.304 542.608 85.4 542 85.512L542.144 83.784H541.68ZM546.599 82.216C546.599 82.76 546.951 83.096 547.559 83.096C548.231 83.096 548.615 82.68 548.615 82.12C548.615 81.576 548.247 81.272 547.639 81.272C546.983 81.272 546.599 81.656 546.599 82.216ZM545.239 85.784L545.255 86.408L546.535 86.728C546.599 86.744 546.615 87.224 546.615 87.608L546.583 90.44L546.535 91.352C546.503 91.912 546.375 92.12 545.991 92.2L545.319 92.344L545.255 93H549.175L549.159 92.344L548.455 92.216C548.055 92.136 547.927 91.912 547.943 91.352L548.071 87.576L548.231 85.16C547.639 85.16 545.799 85.56 545.239 85.784ZM549.858 85.4L549.842 86.056L550.162 86.136C550.386 86.184 550.498 86.328 550.594 86.568L552.706 93.208L554.114 93.048L554.354 92.232L556.69 86.568C556.802 86.344 556.914 86.232 557.154 86.168L557.522 86.056L557.57 85.4H554.434V86.056L555.09 86.216C555.33 86.28 555.442 86.376 555.442 86.552C555.442 86.632 555.426 86.744 555.394 86.84L553.682 91.736L552.274 87.048C552.162 86.696 552.098 86.36 552.194 86.312L553.09 86.056L553.138 85.4H549.858ZM557.929 89.672C557.929 91.704 559.065 93.288 561.257 93.288C563.801 93.288 565.225 91.064 565.225 88.728C565.225 86.664 564.073 85.08 561.929 85.08C559.353 85.08 557.929 87.4 557.929 89.672ZM563.641 89.416C563.641 91.384 562.841 92.44 561.689 92.44C560.249 92.44 559.513 90.84 559.513 89C559.513 87.032 560.329 85.928 561.481 85.928C562.985 85.928 563.641 87.656 563.641 89.416Z" fill="white"/>
<defs>
<filter id="filter0_d" x="0" y="184" width="174.138" height="174.138" filterUnits="userSpaceOnUse" color-interpolation-filters="sRGB">
<feFlood flood-opacity="0" result="BackgroundImageFix"/>
<feColorMatrix in="SourceAlpha" type="matrix" values="0 0 0 0 0 0 0 0 0 0 0 0 0 0 0 0 0 0 127 0"/>
<feOffset dx="2" dy="2"/>
<feGaussianBlur stdDeviation="5"/>
<feColorMatrix type="matrix" values="0 0 0 0 0.489083 0 0 0 0 0.489083 0 0 0 0 0.489083 0 0 0 0.25 0"/>
<feBlend mode="normal" in2="BackgroundImageFix" result="effect1_dropShadow"/>
<feBlend mode="normal" in="SourceGraphic" in2="effect1_dropShadow" result="shape"/>
</filter>
<filter id="filter1_d" x="441" y="0" width="174.138" height="174.138" filterUnits="userSpaceOnUse" color-interpolation-filters="sRGB">
<feFlood flood-opacity="0" result="BackgroundImageFix"/>
<feColorMatrix in="SourceAlpha" type="matrix" values="0 0 0 0 0 0 0 0 0 0 0 0 0 0 0 0 0 0 127 0"/>
<feOffset dx="2" dy="2"/>
<feGaussianBlur stdDeviation="5"/>
<feColorMatrix type="matrix" values="0 0 0 0 0.489083 0 0 0 0 0.489083 0 0 0 0 0.489083 0 0 0 0.25 0"/>
<feBlend mode="normal" in2="BackgroundImageFix" result="effect1_dropShadow"/>
<feBlend mode="normal" in="SourceGraphic" in2="effect1_dropShadow" result="shape"/>
</filter>
</defs>
</svg>
