<svg width="150" height="21" viewBox="0 0 150 21" fill="none" xmlns="http://www.w3.org/2000/svg">
<path d="M1.44049 9.25147C1.22796 8.61748 1.03904 8.28874 0.566749 8.14786L0 7.98349L0.0236146 6.62158H7.50943L7.36774 7.98349L6.44677 8.38267H6.494C6.30509 8.45311 6.44677 9.13407 6.61207 9.8385L8.17064 16.6246L10.2959 10.402L9.8945 8.89925C9.75281 8.45311 9.65835 8.24178 9.35136 8.12437L8.9263 7.98349L8.90269 6.62158H16.2468L16.1287 7.98349L14.948 8.40615C14.7591 8.45311 14.9244 9.15755 15.0661 9.86198L16.5538 16.6246L18.8444 9.20451C18.8916 9.04014 18.9153 8.89925 18.9153 8.78185C18.9153 8.52356 18.7736 8.33571 18.4666 8.2183L17.7581 7.98349L17.7109 6.62158H23.0006L22.9297 7.98349L22.1977 8.17134C21.6782 8.31222 21.4892 8.594 21.2531 9.25147H21.2295L18.0415 17.5873L17.4512 19.6536L13.0116 20.0763L11.2169 13.572L9.70558 17.3525L8.99715 19.6536L4.62845 20.0763L1.44049 9.25147Z" fill="white"/>
<path d="M31.8087 19.7711L31.974 18.4092L32.5172 18.1979C32.9659 17.9866 33.1548 17.6578 33.1784 16.7186L33.202 15.1453L33.2256 11.0596C33.2256 9.32201 32.6589 8.89936 31.6434 8.89936C31.0531 8.89936 30.4155 9.11069 29.7779 9.39246L29.6126 16.7186C29.589 17.6813 29.7307 18.01 30.2266 18.2214L30.8169 18.4327V19.7946H23.095L23.2603 18.4327L24.0159 18.2449C24.6299 18.057 24.8424 17.6813 24.8661 16.5542L24.9133 14.2765L24.9369 4.93104C24.9369 4.39097 24.8661 3.38128 24.7244 3.3578L23.1894 2.72381V1.40887C24.4646 0.962727 28.6444 0 30.1793 0L29.9196 4.08572L29.8487 8.35929C31.0295 7.23219 32.8242 6.12858 34.548 6.12858C36.697 6.12858 38.3027 7.65485 38.2083 10.003L37.9721 16.3429C37.9249 17.5169 38.0902 17.9631 38.7987 18.1979L39.5307 18.3857L39.5543 19.7476H31.8087V19.7711Z" fill="white"/>
<path d="M48.9531 6.10498C52.9675 6.10498 55.8485 8.5705 55.8485 12.6327C55.8485 17.2585 52.141 20.2876 47.7487 20.2876C43.7106 20.2876 40.8533 17.8221 40.8533 13.7833C40.8533 9.18101 44.5608 6.10498 48.9531 6.10498ZM48.1738 7.72518C46.9694 7.72518 46.1902 9.01664 46.1902 12.5858C46.1902 16.6245 47.182 18.6674 48.528 18.6674C49.7323 18.6674 50.488 17.3759 50.488 13.8068C50.488 9.79152 49.5434 7.72518 48.1738 7.72518Z" fill="white"/>
<path d="M64.0426 0L63.7828 4.08572L63.523 16.6716C63.4994 17.6343 63.6647 18.01 64.1606 18.1744L64.9163 18.3857L64.9399 19.7476H56.9818L57.1471 18.3857L57.9028 18.1979C58.5168 18.01 58.7293 17.6343 58.7529 16.5073L58.8001 14.2296L58.8237 4.88408C58.8237 4.34401 58.7529 3.33432 58.6112 3.31084L57.0763 2.67685L57.0527 1.38539C58.3278 0.962727 62.5076 0 64.0426 0ZM67.2778 8.78195C67.325 8.71151 67.3486 8.61758 67.3486 8.52366C67.3486 8.40625 67.2778 8.31233 67.0416 8.26537L66.0262 8.03055L65.979 6.66865H72.6147L72.5438 7.98359L71.3631 8.2184C70.7963 8.35929 70.3949 8.5941 70.0171 8.99328L67.4903 11.4823C69.3086 15.0984 71.2214 17.9396 73.512 18.7614L73.4412 19.6068C72.8744 19.9825 72.0479 20.3112 70.9144 20.3112C67.4667 20.3112 65.3414 17.4935 63.7592 13.126L67.2778 8.78195Z" fill="white"/>
<path d="M80.7147 6.19886L80.3841 8.57046C81.7537 7.23203 83.8082 6.12842 85.6029 6.12842C87.6573 6.12842 89.2631 7.65469 89.1451 10.0028L88.8853 16.3427C88.8381 17.5168 89.027 17.9629 89.7354 18.1977L90.4675 18.3856L90.4911 19.7475H82.7927L82.958 18.3856L83.5012 18.1743C83.9262 17.9864 84.1152 17.6342 84.1388 16.6949L84.186 15.2861V11.0595C84.186 9.34534 83.6429 8.87571 82.6511 8.87571C82.1079 8.87571 81.4939 9.04008 80.8327 9.29838L80.573 16.6715C80.5494 17.6342 80.6438 17.9864 81.1397 18.1743L81.7301 18.3856V19.7475H74.0317L74.197 18.3856L74.9527 18.1977C75.5667 18.0099 75.7792 17.6342 75.8028 16.5071L75.8737 14.4408L75.8973 11.1064C75.8973 10.3785 75.8264 9.60363 75.7084 9.55667L74.1498 8.92268L74.1262 7.65469C75.3542 7.20855 79.4395 6.19886 80.7147 6.19886Z" fill="white"/>
<path d="M99.9368 6.10498C103.951 6.10498 106.832 8.5705 106.832 12.6327C106.832 17.2585 103.125 20.2876 98.7325 20.2876C94.6944 20.2876 91.837 17.8221 91.837 13.7833C91.837 9.18101 95.5445 6.10498 99.9368 6.10498ZM99.1575 7.72518C97.9532 7.72518 97.1739 9.01664 97.1739 12.5858C97.1739 16.6245 98.1657 18.6674 99.5118 18.6674C100.716 18.6674 101.472 17.3759 101.472 13.8068C101.472 9.79152 100.527 7.72518 99.1575 7.72518Z" fill="white"/>
<path d="M108.934 9.25147C108.721 8.61748 108.533 8.28874 108.037 8.14786L107.47 7.98349L107.493 6.62158H114.979L114.838 7.98349L113.917 8.38267H113.964C113.775 8.45311 113.917 9.13407 114.082 9.8385L115.64 16.6246L117.766 10.402L117.364 8.89925C117.223 8.45311 117.128 8.24178 116.821 8.12437L116.396 7.98349L116.373 6.62158H123.717L123.599 7.98349L122.418 8.40615C122.229 8.45311 122.394 9.15755 122.536 9.86198L124.024 16.6246L126.314 9.20451C126.361 9.04014 126.385 8.89925 126.385 8.78185C126.385 8.52356 126.243 8.33571 125.936 8.2183L125.228 7.98349L125.181 6.62158H130.47L130.4 7.98349L129.668 8.17134C129.148 8.31222 128.959 8.594 128.723 9.25147H128.699L125.535 17.5873L124.945 19.6536L120.505 20.0763L118.71 13.572L117.199 17.3525L116.491 19.6536L112.122 20.0763L108.934 9.25147Z" fill="white"/>
<path d="M136.657 6.10498C138.122 6.10498 140.082 6.4572 141.38 6.92682C141.404 8.21828 141.38 9.88545 141.31 10.9186L139.845 11.0595C139.208 8.82879 138.122 7.77214 136.894 7.77214C136.067 7.77214 135.43 8.28873 135.43 9.08709C135.43 10.0498 136.232 10.496 137.862 11.3178C140.318 12.5388 142.065 13.4781 142.065 15.8731C142.065 18.5265 139.916 20.2406 135.831 20.2406C134.107 20.2406 132.123 19.9119 131.297 19.5832C130.919 18.1743 130.73 16.1314 130.73 15.0983L132.265 15.0278C132.808 16.8359 134.532 18.55 136.256 18.55C137.153 18.55 137.673 18.0804 137.649 17.3525C137.602 16.2723 136.232 15.6853 134.367 14.7695C132.619 13.8538 131.203 12.9145 131.155 10.6838C131.132 7.56081 133.682 6.10498 136.657 6.10498Z" fill="white"/>
<path d="M146.883 20.0764C145.182 20.0764 144.049 19.0668 144.049 17.4935C144.049 15.7794 145.418 14.6758 147.213 14.6758C148.937 14.6758 150 15.615 150 17.1648C150.023 18.9024 148.63 20.0764 146.883 20.0764Z" fill="#FF9560"/>
</svg>
