<svg width="150" height="21" viewBox="0 0 150 21" fill="none" xmlns="http://www.w3.org/2000/svg">
<path d="M1.44049 9.25098C1.22796 8.61699 1.03904 8.28826 0.566749 8.14737L0 7.983L0.0236146 6.62109H7.50943L7.36774 7.983L6.44677 8.38218H6.494C6.30509 8.45262 6.44677 9.13358 6.61207 9.83801L8.17064 16.6241L10.2959 10.4016L9.8945 8.89877C9.75281 8.45262 9.65835 8.24129 9.35136 8.12389L8.9263 7.983L8.90269 6.62109H16.2468L16.1287 7.983L14.948 8.40566C14.7591 8.45262 14.9244 9.15706 15.0661 9.86149L16.5538 16.6241L18.8444 9.20402C18.8916 9.03965 18.9153 8.89877 18.9153 8.78136C18.9153 8.52307 18.7736 8.33522 18.4666 8.21781L17.7581 7.983L17.7109 6.62109H23.0006L22.9297 7.983L22.1977 8.17085C21.6782 8.31174 21.4892 8.59351 21.2531 9.25098H21.2295L18.0415 17.5868L17.4512 19.6531L13.0116 20.0758L11.2169 13.5715L9.70558 17.352L8.99714 19.6531L4.62845 20.0758L1.44049 9.25098Z" fill="#2F2A95"/>
<path d="M31.8087 19.7711L31.974 18.4092L32.5172 18.1979C32.9659 17.9866 33.1548 17.6578 33.1784 16.7186L33.202 15.1453L33.2256 11.0596C33.2256 9.32201 32.6589 8.89935 31.6434 8.89935C31.0531 8.89935 30.4155 9.11069 29.7779 9.39246L29.6126 16.7186C29.589 17.6813 29.7307 18.01 30.2266 18.2214L30.8169 18.4327V19.7946H23.095L23.2603 18.4327L24.0159 18.2449C24.6299 18.057 24.8424 17.6813 24.8661 16.5542L24.9133 14.2765L24.9369 4.93104C24.9369 4.39097 24.8661 3.38128 24.7244 3.3578L23.1894 2.72381V1.40887C24.4646 0.962727 28.6444 0 30.1793 0L29.9196 4.08572L29.8487 8.35929C31.0295 7.23219 32.8242 6.12858 34.548 6.12858C36.697 6.12858 38.3027 7.65485 38.2083 10.003L37.9721 16.3429C37.9249 17.5169 38.0902 17.9631 38.7986 18.1979L39.5307 18.3857L39.5543 19.7476H31.8087V19.7711Z" fill="#2F2A95"/>
<path d="M48.9531 6.10547C52.9675 6.10547 55.8485 8.57099 55.8485 12.6332C55.8485 17.259 52.141 20.2881 47.7487 20.2881C43.7106 20.2881 40.8533 17.8226 40.8533 13.7838C40.8533 9.1815 44.5608 6.10547 48.9531 6.10547ZM48.1738 7.72567C46.9694 7.72567 46.1902 9.01713 46.1902 12.5863C46.1902 16.625 47.182 18.6679 48.528 18.6679C49.7323 18.6679 50.488 17.3764 50.488 13.8073C50.488 9.79201 49.5434 7.72567 48.1738 7.72567Z" fill="#2F2A95"/>
<path d="M64.0427 0L63.7829 4.08572L63.5232 16.6716C63.4996 17.6343 63.6649 18.01 64.1608 18.1744L64.9164 18.3857L64.94 19.7477H56.9819L57.1472 18.3857L57.9029 18.1979C58.5169 18.01 58.7294 17.6343 58.753 16.5073L58.8003 14.2296L58.8239 4.88408C58.8239 4.34401 58.753 3.33432 58.6113 3.31084L57.0764 2.67685L57.0528 1.38539C58.328 0.962727 62.5077 0 64.0427 0ZM67.2779 8.78195C67.3251 8.71151 67.3487 8.61758 67.3487 8.52366C67.3487 8.40625 67.2779 8.31233 67.0417 8.26537L66.0263 8.03055L65.9791 6.66865H72.6148L72.5439 7.98359L71.3632 8.2184C70.7965 8.35929 70.395 8.5941 70.0172 8.99328L67.4904 11.4823C69.3087 15.0984 71.2215 17.9396 73.5121 18.7614L73.4413 19.6068C72.8745 19.9825 72.048 20.3112 70.9145 20.3112C67.4668 20.3112 65.3415 17.4935 63.7593 13.126L67.2779 8.78195Z" fill="#2F2A95"/>
<path d="M80.7147 6.19935L80.3841 8.57095C81.7537 7.23252 83.8082 6.12891 85.6029 6.12891C87.6573 6.12891 89.2631 7.65518 89.1451 10.0033L88.8853 16.3432C88.8381 17.5173 89.027 17.9634 89.7354 18.1982L90.4675 18.3861L90.4911 19.748H82.7927L82.958 18.3861L83.5012 18.1747C83.9262 17.9869 84.1152 17.6347 84.1388 16.6954L84.186 15.2866V11.06C84.186 9.34583 83.6429 8.8762 82.6511 8.8762C82.1079 8.8762 81.4939 9.04057 80.8327 9.29886L80.573 16.672C80.5494 17.6347 80.6438 17.9869 81.1397 18.1747L81.7301 18.3861V19.748H74.0317L74.197 18.3861L74.9527 18.1982C75.5667 18.0104 75.7792 17.6347 75.8028 16.5076L75.8737 14.4412L75.8973 11.1069C75.8973 10.379 75.8264 9.60412 75.7084 9.55716L74.1498 8.92316L74.1262 7.65518C75.3542 7.20904 79.4395 6.19935 80.7147 6.19935Z" fill="#2F2A95"/>
<path d="M99.9368 6.10547C103.951 6.10547 106.832 8.57099 106.832 12.6332C106.832 17.259 103.125 20.2881 98.7325 20.2881C94.6944 20.2881 91.837 17.8226 91.837 13.7838C91.837 9.1815 95.5445 6.10547 99.9368 6.10547ZM99.1575 7.72567C97.9532 7.72567 97.1739 9.01713 97.1739 12.5863C97.1739 16.625 98.1657 18.6679 99.5118 18.6679C100.716 18.6679 101.472 17.3764 101.472 13.8073C101.472 9.79201 100.527 7.72567 99.1575 7.72567Z" fill="#2F2A95"/>
<path d="M108.934 9.25098C108.722 8.61699 108.533 8.28826 108.037 8.14737L107.47 7.983L107.494 6.62109H114.979L114.838 7.983L113.917 8.38218H113.964C113.775 8.45262 113.917 9.13358 114.082 9.83801L115.641 16.6241L117.766 10.4016L117.364 8.89877C117.223 8.45262 117.128 8.24129 116.821 8.12389L116.396 7.983L116.373 6.62109H123.717L123.599 7.983L122.418 8.40566C122.229 8.45262 122.394 9.15706 122.536 9.86149L124.024 16.6241L126.314 9.20402C126.362 9.03965 126.385 8.89877 126.385 8.78136C126.385 8.52307 126.244 8.33522 125.937 8.21781L125.228 7.983L125.181 6.62109H130.471L130.4 7.983L129.668 8.17085C129.148 8.31174 128.959 8.59351 128.723 9.25098H128.699L125.535 17.5868L124.945 19.6531L120.505 20.0758L118.71 13.5715L117.199 17.352L116.491 19.6531L112.122 20.0758L108.934 9.25098Z" fill="#2F2A95"/>
<path d="M136.657 6.10547C138.122 6.10547 140.082 6.45769 141.38 6.92731C141.404 8.21877 141.38 9.88593 141.31 10.9191L139.845 11.06C139.208 8.82928 138.122 7.77263 136.894 7.77263C136.067 7.77263 135.43 8.28922 135.43 9.08758C135.43 10.0503 136.232 10.4964 137.862 11.3183C140.318 12.5393 142.065 13.4786 142.065 15.8736C142.065 18.527 139.916 20.2411 135.831 20.2411C134.107 20.2411 132.123 19.9124 131.297 19.5837C130.919 18.1748 130.73 16.1319 130.73 15.0988L132.265 15.0283C132.808 16.8364 134.532 18.5505 136.256 18.5505C137.153 18.5505 137.673 18.0809 137.649 17.3529C137.602 16.2728 136.232 15.6858 134.367 14.77C132.619 13.8542 131.203 12.915 131.155 10.6843C131.132 7.5613 133.682 6.10547 136.657 6.10547Z" fill="#2F2A95"/>
<path d="M146.883 20.0764C145.182 20.0764 144.049 19.0668 144.049 17.4935C144.049 15.7794 145.418 14.6758 147.213 14.6758C148.937 14.6758 150 15.615 150 17.1648C150.023 18.9024 148.63 20.0764 146.883 20.0764Z" fill="#FF9560"/>
</svg>
