<svg width="14" height="13" viewBox="0 0 14 13" fill="none" xmlns="http://www.w3.org/2000/svg">
<path fill-rule="evenodd" clip-rule="evenodd" d="M13.7491 6.50001C13.7491 6.94021 13.7043 7.37979 13.6163 7.80828C13.5304 8.22659 13.4033 8.63727 13.2367 9.02987C13.074 9.41552 12.8722 9.78715 12.6364 10.1337C12.404 10.4781 12.1364 10.8012 11.8424 11.0957C11.5477 11.389 11.2236 11.6559 10.8793 11.8892C10.5316 12.1234 10.1595 12.3249 9.77358 12.4884C9.38042 12.6541 8.96879 12.781 8.55084 12.8667C8.12178 12.9549 7.68059 13 7.23976 13C6.7986 13 6.35744 12.9549 5.92899 12.8667C5.51041 12.781 5.0988 12.6541 4.70594 12.4884C4.32009 12.3249 3.94757 12.1234 3.59986 11.8892C3.25564 11.6559 2.93144 11.389 2.63744 11.0957C2.34313 10.8012 2.07549 10.4781 1.84284 10.1337C1.60827 9.78715 1.40611 9.41549 1.24275 9.02987C1.07618 8.63727 0.948745 8.22657 0.862607 7.80828C0.775526 7.37979 0.731018 6.94021 0.731018 6.50001C0.731018 6.05949 0.775501 5.61897 0.862632 5.19142C0.94877 4.7731 1.07621 4.36178 1.24278 3.96983C1.40613 3.5839 1.60829 3.21194 1.84286 2.86534C2.07552 2.52067 2.34315 2.19819 2.63746 1.90334C2.93147 1.61006 3.25566 1.34381 3.59988 1.11085C3.94759 0.875654 4.32012 0.674142 4.70597 0.510357C5.09883 0.344334 5.51041 0.217082 5.92902 0.132035C6.35747 0.0444441 6.79863 0 7.23979 0C7.68062 0 8.12178 0.0444441 8.55086 0.132035C8.96881 0.217107 9.38042 0.344359 9.77361 0.510357C10.1595 0.674116 10.5316 0.875654 10.8794 1.11085C11.2236 1.34381 11.5478 1.61006 11.8424 1.90334C12.1364 2.19819 12.4041 2.52067 12.6364 2.86534C12.8722 3.21194 13.074 3.58392 13.2367 3.96983C13.4033 4.36178 13.5304 4.7731 13.6163 5.19142C13.7043 5.61897 13.7491 6.05949 13.7491 6.50001ZM4.86817 1.47949C3.31805 2.21044 2.16111 3.63675 1.80035 5.3557C1.9469 5.35697 4.26332 5.38618 6.93222 4.67807C5.97013 2.97118 4.94223 1.57823 4.86817 1.47949ZM7.39256 5.53247C4.53042 6.3881 1.78395 6.32654 1.68543 6.32275C1.68382 6.3824 1.68097 6.44015 1.68097 6.49984C1.68097 7.92581 2.21971 9.22581 3.10521 10.2088C3.1033 10.2059 4.62451 7.51101 7.62428 6.54237C7.69673 6.51826 7.77049 6.49666 7.84358 6.47572C7.70407 6.16026 7.55179 5.84414 7.39256 5.53247ZM10.911 2.33387C9.93235 1.47216 8.64734 0.949463 7.23994 0.949463C6.78828 0.949463 6.34998 1.00406 5.93011 1.10498C6.01337 1.21671 7.0575 2.59985 8.00815 4.34289C10.1056 3.5577 10.8973 2.35417 10.911 2.33387ZM8.2223 7.39551C8.20992 7.3996 8.19754 7.40314 8.18543 7.40757C4.90569 8.54928 3.83465 10.8502 3.82306 10.8753C4.76675 11.6081 5.95039 12.0502 7.23955 12.0502C8.00934 12.0502 8.74259 11.8937 9.40973 11.6103C9.32742 11.1254 9.00449 9.42549 8.2223 7.39551ZM10.3462 11.1035C11.5943 10.2624 12.4808 8.9269 12.7281 7.37992C12.6136 7.34311 11.0584 6.85148 9.26422 7.13872C9.99335 9.13953 10.2896 10.769 10.3462 11.1035ZM8.43561 5.17016C8.56462 5.43487 8.68956 5.70428 8.80492 5.97504C8.84594 6.07217 8.88599 6.16739 8.92507 6.26259C10.8347 6.02264 12.716 6.42635 12.7964 6.44283C12.7837 5.12699 12.3123 3.91934 11.5323 2.97388C11.5218 2.98876 10.6303 4.27512 8.43561 5.17016Z" fill="#061A40" fill-opacity="1"/>
</svg>
