<svg width="14" height="13" viewBox="0 0 14 13" fill="none" xmlns="http://www.w3.org/2000/svg">
<path fill-rule="evenodd" clip-rule="evenodd" d="M7.31078 0C5.54549 0 5.32395 0.00771875 4.63062 0.0392708C3.93864 0.0709583 3.4663 0.18051 3.05301 0.34125C2.6255 0.507271 2.26286 0.729354 1.90156 1.09078C1.54 1.45207 1.31792 1.81472 1.15136 2.24209C0.99021 2.65552 0.880523 3.12799 0.849377 3.8197C0.818367 4.51303 0.810242 4.73471 0.810242 6.5C0.810242 8.26529 0.818096 8.48616 0.849513 9.17949C0.881335 9.87147 0.990888 10.3438 1.15149 10.7571C1.31765 11.1846 1.53973 11.5473 1.90116 11.9085C2.26231 12.2701 2.62496 12.4927 3.0522 12.6588C3.46576 12.8195 3.93823 12.929 4.63008 12.9607C5.32341 12.9923 5.54482 13 7.30997 13C9.0754 13 9.29626 12.9923 9.9896 12.9607C10.6816 12.929 11.1545 12.8195 11.568 12.6588C11.9954 12.4927 12.3575 12.2701 12.7186 11.9085C13.0802 11.5473 13.3023 11.1846 13.4689 10.7572C13.6286 10.3438 13.7383 9.87133 13.7708 9.17963C13.802 8.48629 13.8101 8.26529 13.8101 6.5C13.8101 4.73471 13.802 4.51317 13.7708 3.81983C13.7383 3.12785 13.6286 2.65552 13.4689 2.24223C13.3023 1.81472 13.0802 1.45207 12.7186 1.09078C12.3571 0.729219 11.9955 0.507135 11.5676 0.34125C11.1532 0.18051 10.6806 0.0709583 9.98865 0.0392708C9.29531 0.00771875 9.07459 0 7.30875 0H7.31078ZM6.72766 1.17155C6.90072 1.17128 7.09382 1.17155 7.31076 1.17155C9.04626 1.17155 9.25196 1.17778 9.9373 1.20892C10.5711 1.2379 10.915 1.3438 11.1441 1.43277C11.4475 1.55058 11.6637 1.69141 11.8911 1.91891C12.1186 2.14641 12.2594 2.36308 12.3775 2.66641C12.4665 2.89527 12.5725 3.23922 12.6014 3.87297C12.6325 4.55818 12.6393 4.76402 12.6393 6.4987C12.6393 8.23339 12.6325 8.43923 12.6014 9.12443C12.5724 9.75818 12.4665 10.1021 12.3775 10.331C12.2597 10.6343 12.1186 10.8503 11.8911 11.0777C11.6636 11.3052 11.4476 11.446 11.1441 11.5638C10.9153 11.6532 10.5711 11.7588 9.9373 11.7878C9.2521 11.819 9.04626 11.8257 7.31076 11.8257C5.57513 11.8257 5.36943 11.819 4.68422 11.7878C4.05047 11.7586 3.70651 11.6527 3.47725 11.5637C3.17392 11.4459 2.95725 11.305 2.72975 11.0775C2.50225 10.85 2.36142 10.6339 2.24334 10.3305C2.15437 10.1016 2.04834 9.75764 2.01949 9.12389C1.98835 8.43868 1.98212 8.23285 1.98212 6.49708C1.98212 4.76131 1.98835 4.55656 2.01949 3.87135C2.04847 3.2376 2.15437 2.89364 2.24334 2.66452C2.36115 2.36118 2.50225 2.14452 2.72975 1.91702C2.95725 1.68952 3.17392 1.54868 3.47725 1.4306C3.70638 1.34122 4.05047 1.2356 4.68422 1.20648C5.28385 1.1794 5.51622 1.17128 6.72766 1.16992V1.17155ZM10.7804 2.25051C10.3498 2.25051 10.0004 2.59948 10.0004 3.03024C10.0004 3.46087 10.3498 3.81024 10.7804 3.81024C11.2111 3.81024 11.5604 3.46087 11.5604 3.03024C11.5604 2.59962 11.2111 2.25024 10.7804 2.25024V2.25051ZM7.31086 3.16187C5.46743 3.16187 3.97284 4.65646 3.97284 6.49989C3.97284 8.34331 5.46743 9.83723 7.31086 9.83723C9.15429 9.83723 10.6483 8.34331 10.6483 6.49989C10.6483 4.65646 9.15415 3.16187 7.31073 3.16187H7.31086ZM7.31089 4.33325C8.50743 4.33325 9.47756 5.30324 9.47756 6.49992C9.47756 7.69646 8.50743 8.66659 7.31089 8.66659C6.11422 8.66659 5.14423 7.69646 5.14423 6.49992C5.14423 5.30324 6.11422 4.33325 7.31089 4.33325Z" fill="#061A40" fill-opacity="1"/>
</svg>
