<svg width="15" height="13" viewBox="0 0 15 13" fill="none" xmlns="http://www.w3.org/2000/svg">
<path fill-rule="evenodd" clip-rule="evenodd" d="M4.03327 1.51506C4.01433 0.65504 3.39932 0 2.40065 0C1.40198 0 0.749084 0.65504 0.749084 1.51506C0.749084 2.35726 1.38268 3.03116 2.36276 3.03116H2.38141C3.39932 3.03116 4.03327 2.35726 4.03327 1.51506ZM3.84098 4.22827H0.921692V12.9995H3.84098V4.22827ZM11.0078 4.02246C12.9289 4.02246 14.369 5.27636 14.369 7.97051L14.3689 12.9997H11.4498V8.30706C11.4498 7.12837 11.0273 6.32407 9.97052 6.32407C9.164 6.32407 8.68361 6.86628 8.47263 7.38999C8.39544 7.57768 8.37649 7.83918 8.37649 8.10133V12.9999H5.45685C5.45685 12.9999 5.49533 5.05171 5.45685 4.22866H8.37649V5.47104C8.76395 4.8738 9.45789 4.02246 11.0078 4.02246Z" fill="#061A40" fill-opacity="0.7"/>
</svg>
