<svg width="17" height="13" viewBox="0 0 17 13" fill="none" xmlns="http://www.w3.org/2000/svg">
<path fill-rule="evenodd" clip-rule="evenodd" d="M2.31093 2.65213C2.3314 2.45085 2.25429 2.2523 2.10419 2.1172L0.575819 0.27497V0H5.32331L8.99276 8.04781L12.2187 0H16.7445V0.27497L15.4372 1.52837C15.3246 1.61434 15.2686 1.75558 15.2918 1.89545V11.1052C15.2686 11.2444 15.3246 11.3857 15.4372 11.4716L16.7137 12.725V13H10.2919V12.725L11.6149 11.4409C11.7445 11.3113 11.7445 11.2731 11.7445 11.0745V3.63056L8.06755 12.97H7.57083L3.28935 3.63056V9.89004C3.25387 10.1527 3.34121 10.4181 3.52612 10.6078L5.24621 12.6943V12.97H0.36908V12.6943L2.08918 10.6078C2.2734 10.4175 2.35528 10.1507 2.31093 9.89004V2.65213Z" fill="#061A40" fill-opacity="1"/>
</svg>
